<?xml version="1.0" encoding="UTF-8" standalone="no"?><!DOCTYPE svg PUBLIC "-//W3C//DTD SVG 1.1//EN" "http://www.w3.org/Graphics/SVG/1.1/DTD/svg11.dtd"><svg width="100%" height="100%" viewBox="0 0 183 179" version="1.1" xmlns="http://www.w3.org/2000/svg" xmlns:xlink="http://www.w3.org/1999/xlink" xml:space="preserve" xmlns:serif="http://www.serif.com/" style="fill-rule:evenodd;clip-rule:evenodd;stroke-linejoin:round;stroke-miterlimit:2;"><path d="M9.331,0c-5.153,0 -9.331,4.178 -9.331,9.331l0,108.725c0,2.369 0.943,4.641 2.62,6.315c9.478,9.458 41.923,41.833 51.388,51.277c1.672,1.669 3.939,2.606 6.301,2.606l113.017,0c2.475,0 4.848,-0.983 6.598,-2.733c1.75,-1.75 2.733,-4.123 2.733,-6.598l-0,-159.593c0,-5.153 -4.178,-9.331 -9.331,-9.331l-163.995,-0Z" style="fill:#FFFFFF;"/><path d="M175.3,57.341c0.648,0.648 1.012,1.528 1.012,2.444l-0,108.423c-0,1.909 -1.548,3.457 -3.457,3.457l-108.423,-0c-0.917,0 -1.796,-0.364 -2.444,-1.012c-5.961,-5.961 -36.671,-36.671 -49.742,-49.742c-0.989,-0.989 -1.284,-2.475 -0.749,-3.767c0.535,-1.292 1.796,-2.134 3.194,-2.134l45.63,-0c1.398,-0 2.659,-0.842 3.194,-2.134c0.535,-1.292 0.239,-2.779 -0.749,-3.767c-13.101,-13.101 -44.164,-44.164 -53.101,-53.101c-1.35,-1.35 -1.35,-3.539 -0,-4.889c5.685,-5.685 39.074,-39.074 46.101,-46.101c1.35,-1.35 3.539,-1.35 4.889,-0c8.951,8.951 40.1,40.1 53.164,53.164c0.985,0.985 2.466,1.283 3.755,0.754c1.289,-0.528 2.135,-1.779 2.146,-3.172c0.091,-11.835 0.257,-33.5 0.348,-45.335c0.011,-1.393 0.857,-2.644 2.146,-3.172c1.289,-0.528 2.77,-0.231 3.755,0.754c12.947,12.947 43.396,43.396 49.33,49.33Z" style="fill:#e8cb1b;"/><clipPath id="_clip1"><path d="M175.3,57.341c0.648,0.648 1.012,1.528 1.012,2.444l-0,108.423c-0,1.909 -1.548,3.457 -3.457,3.457l-108.423,-0c-0.917,0 -1.796,-0.364 -2.444,-1.012c-5.961,-5.961 -36.671,-36.671 -49.742,-49.742c-0.989,-0.989 -1.284,-2.475 -0.749,-3.767c0.535,-1.292 1.796,-2.134 3.194,-2.134l45.63,-0c1.398,-0 2.659,-0.842 3.194,-2.134c0.535,-1.292 0.239,-2.779 -0.749,-3.767c-13.101,-13.101 -44.164,-44.164 -53.101,-53.101c-1.35,-1.35 -1.35,-3.539 -0,-4.889c5.685,-5.685 39.074,-39.074 46.101,-46.101c1.35,-1.35 3.539,-1.35 4.889,-0c8.951,8.951 40.1,40.1 53.164,53.164c0.985,0.985 2.466,1.283 3.755,0.754c1.289,-0.528 2.135,-1.779 2.146,-3.172c0.091,-11.835 0.257,-33.5 0.348,-45.335c0.011,-1.393 0.857,-2.644 2.146,-3.172c1.289,-0.528 2.77,-0.231 3.755,0.754c12.947,12.947 43.396,43.396 49.33,49.33Z"/></clipPath><g clip-path="url(#_clip1)"><path d="M8.621,-16.806l1.466,5.592l-7.122,-3.337l5.656,-2.255Zm-4.726,-3.614l-0,-14.411l4.491,17.13l-3.15,1.256l-1.341,-3.976Zm14.663,1.664l-6.62,7.319l-4.33,-16.516l10.951,9.198Zm7.266,-6.38l7.883,8.53l-5.217,5.157l9.118,10.051l-14.812,-0.948l-10.475,-7.632l-0.105,-0.4l7.343,-8.116l6.266,-6.642Zm13.068,-8.323l1.165,6.269l-7.834,7.616l-3.155,-3.414l9.824,-10.471Zm1.919,-4.827l22.576,5.778l-2.409,4.685l-19.013,-4.249l-1.154,-6.213Zm27.176,-1.159l12.778,8.586l-3.844,6.925l-12.268,-9.028l3.334,-6.483Zm17.658,1.687l10.399,6.731l-3.824,6.75l-10.24,-6.88l3.664,-6.601Zm15.078,0.335l8.14,4.905l-3.488,6.504l-8.102,-5.318l3.451,-6.091Zm17.541,10.569l-7.918,14.897l-8.404,-5.715l3.765,-7.018l8.281,5.435l0.51,-0.771l-8.353,-5.482l3.505,-6.535l8.614,5.19Zm-12.65,23.8l-8.297,-5.994l4.185,-7.803l8.407,5.717l-4.295,8.081Zm-3.661,6.888l-8.209,-6.221l3.132,-5.839l8.3,5.997l-3.223,6.063Zm-5.56,10.461l-8.016,-6.676l4.924,-9.18l8.212,6.223l-5.12,9.633Zm-5.801,10.915l-2.198,-1.403l5.343,-10.521l2.213,1.843l-5.358,10.081Zm-0.436,0.819l-4.875,9.173l-1.008,-1.336l3.739,-9.206l2.145,1.369Zm18.019,14.05l-20.949,37.362l-0.901,-0.346l-14.738,-17.841l5.307,-3.168l-0.937,-1.386l14.952,-28.131l17.267,13.51Zm-2.484,-17.358l9.194,5.39l-6.252,11.151l-8.28,-6.479l5.338,-10.063Zm13.867,-26.14l10.292,4.841l-14.512,25.882l-9.212,-5.401l13.433,-25.322Zm0.433,-0.817l7.454,-14.052l10.689,4.935l-7.832,13.968l-10.311,-4.85Zm24.411,-18.419l22.883,9.427l-4.693,8.433l-23.152,-9.009l4.963,-8.851Zm5.057,-9.018l22.819,9.474l-4.541,8.158l-22.88,-9.426l4.601,-8.206Zm7.731,36.582l-9.092,-3.549l-14.046,-5.556l4.931,-8.794l23.155,9.01l-4.948,8.889Zm-0.411,0.831l-6.38,14.366l-9.13,-3.584l6.884,-14.15l8.626,3.367Zm5.946,2.321l-13.161,28.256l-4.516,-1.898l12.588,-28.345l5.089,1.987Zm4.142,84.34l-7.111,0.063l-5.544,46.6l-12.427,-1.888l16.478,-63.558l0.225,0.045l-5.946,-37.217l3.821,-8.203l10.504,64.157Zm-12.873,48.496l-0.934,7.848l4.355,1.661l-1.027,6.542l-12.41,-4.545l1.516,-4.16l-6.104,-2.381l1.337,-3.46l-0.859,-0.325l-3.036,7.857l0.859,0.325l1.366,-3.535l5.265,2.053l-1.523,4.177l12.519,4.585l-6.332,1.964l-25.935,-8.422l8.115,-16.785l9.649,4.598l13.179,2.002Zm17.703,2.69l-8.223,28.158l-43.565,-14.165l2.736,-5.659l26.188,8.505l0.139,0.045l8.194,-2.542l1.274,-8.121l-4.381,-1.671l0.845,-7.102l16.792,2.552Zm-8.482,29.045l-2.074,7.103l-15.173,-5.608l2.136,-6.408l15.112,4.913Zm8.446,2.746l-2.039,7.491l-7.617,-2.815l2.084,-7.138l7.572,2.462Zm-2.283,8.387l-1.536,5.646l-7.693,-3.003l1.596,-5.465l7.633,2.822Zm-1.781,6.543l-2.199,8.08l-7.817,-3.187l2.308,-7.902l7.709,3.009Zm-2.481,8.963l-7.125,18.945l-9.276,-12.568l8.435,-9.625l7.966,3.248Zm-7.905,21.004l-1.433,3.739l-10.204,-14.229l-24.785,-14.603l1.999,-2.581l24.393,14.086l10.03,13.589Zm-20.417,8.167l-4.153,-4.243l13.864,-9.941l3.628,5.059l-13.339,9.126Zm-8.865,-9.058l0.001,-0.001l-10.296,-10.464l4.285,-3.126l-4.416,-6.366l2.146,-2.771l24.65,14.524l1.673,2.332l-13.979,10.024l-4.063,-4.152Zm-7.166,5.657l-4.697,-4.124l-13.301,13.912l-16.529,-14.745l4.37,-7.153l13.454,11.637l0.526,-18.664l3.587,-5.282l18.448,18.75l-5.859,5.668Zm-42.609,-12.166l6.313,-10.706l8.502,6.853l11.864,-21.095l7.752,4.568l-8.913,13.122l-0.479,16.98l-12.802,-11.074l-4.852,7.94l-7.385,-6.587Zm-7.242,6.862l-17.143,-1.276l-3.759,-8.919l25.111,3.057l-4.209,7.137Zm-34.431,6.843l-4.983,-11.405l-13.068,-4.437l7.868,-5.22l-2.547,-4.832l5.254,-3.106l6.237,15.061l5.492,-3.712l3.735,8.842l-0.282,-0.021l-7.706,8.831Zm-17.428,-11.666l-7.623,5.679l-5.391,-8.315l8.249,-6.228l-5.519,-9.297l8.47,-6.44l7.855,14.903l-8.286,5.497l0.266,0.54l1.979,3.661Zm-18.853,-11.644l7.829,-5.953l5.047,8.5l-7.536,5.689l-5.339,-8.237Zm3.69,-14.736l4.962,-4.185l6.843,3.157l1.104,1.99l-8.501,6.464l-4.409,-7.426Zm-5.293,-8.916l9.335,4.307l-4.517,3.81l-4.818,-8.116Zm-1.74,-1.821l-0.579,-20.649l6.722,6.569l0.398,17.098l-6.541,-3.018Zm7.06,-25.308l9.324,8.39l2.257,25.518l-11.168,-5.152l-0.413,-17.738l-0,-11.018Zm0,-1.245l0,-0.14l10.767,-13.195l5.825,12.214l-6.901,9.841l-9.691,-8.72Zm2.442,-12.866l6.007,-5.328l1.881,3.944l-4.139,5.072l-3.748,-3.688Zm-3.628,-3.569l7.448,-6.344l1.776,3.724l-6.251,5.545l-2.973,-2.925Zm-4.436,-4.364l9.345,-7.303l2.13,4.466l-7.695,6.555l-3.78,-3.719Zm-5.65,-5.558l11.575,-8.913l3.015,6.321l-9.6,7.502l-4.99,-4.91Zm13.121,-9.967l7.313,-4.287l2.918,6.182l-7.219,4.418l-3.012,-6.314Zm-2.96,-6.207l7.317,-4.342l2.562,5.429l-7.316,4.288l-2.564,-5.375Zm-3.139,-6.582l7.404,-4.226l2.659,5.633l-7.32,4.344l-2.743,-5.751Zm-3.937,-8.255l7.462,-4.19l3.487,7.387l-7.407,4.228l-3.541,-7.425Zm-3.608,-7.566l7.538,-4.109l3.14,6.653l-7.466,4.192l-3.212,-6.735Zm3.506,-16.982l5.926,-1.968l7.503,17.223l-5.733,1.05l-7.696,-16.305Zm9.323,-3.096l8.008,17.635l-2.968,0.544l-7.556,-17.344l2.516,-0.836Zm6.365,-2.114l11.617,5.939l-2.085,12.364l-6.952,1.274l-8.063,-17.757l5.483,-1.821Zm-15.455,-20.14l7.368,-0.065l21.808,24.813l-1.56,0.572l-12.077,-6.175l-5.949,1.975l-9.59,-21.12Zm24.238,7.377l3.324,3.899l3.914,-4.167l6.94,16.266l-8.263,1.083l-10.792,-12.279l4.877,-4.803Zm-25.212,-31.001l3.786,-3.202l3.335,3.796l6.953,-2.155l7.576,25.523l5.562,-5.503l4.844,11.353l-3.482,3.707l-28.575,-33.519Zm-2.515,-11.778l2.435,-7.46l10.766,6.264l3.126,10.532l-6.388,1.98l-9.939,-11.316Zm2.729,-8.359l1.076,-3.295l12.83,7.571l-2.919,2.116l-10.987,-6.392Zm1.37,-4.195l1.118,-3.425l15.355,9.041l-3.121,2.263l-13.352,-7.88Zm18.79,5.205l-2.567,-9.789l9.05,6.594l-6.484,3.195Zm22.898,-1.666l-1.866,8.871l18.119,11.183l-3.72,2.665l0.44,0.652l-27.067,15.779l-1.327,-3.11l-5.304,5.247l-9.82,-33.08l7.533,-5.463l7.574,-3.733l15.437,0.988Zm6.329,-2.917l0.047,0.251l9.564,-0.085l11.222,14.989l-10.095,7.231l-17.899,-11.048l1.797,-8.542l5.364,-2.797Zm-0.175,-0.944l-5.489,2.862l-9.055,-9.982l5.223,-5.163l-2.142,-2.318l7.413,-7.206l4.051,21.807Zm16.232,-22.675l-4.244,8.253l-11.832,0.105l-2.317,-12.469l18.393,4.11Zm15.926,3.857l-2.828,5.094l-11.831,-9.406l2.416,-4.698l12.244,9.01Zm15.295,-0.352l-4.182,7.382l-9.916,-7.297l3.864,-6.96l10.234,6.876Zm1.221,-0.292l3.832,-6.763l8.12,5.329l-3.757,7.005l-8.194,-5.572Zm-4.656,8.219l4.199,-7.412l8.212,5.584l-4.173,7.78l-8.238,-5.952Zm-3.588,6.333l3.129,-5.524l8.256,5.965l-3.122,5.82l-8.263,-6.261Zm-5.311,9.375l4.851,-8.563l8.28,6.275l-4.903,9.142l-8.228,-6.853Zm3.495,14.447l-4.077,-0.867l-0.316,-5.077l-2.719,-2.12l3.153,-5.565l8.224,6.849l-4.265,6.779Zm0.748,0.535l4.23,-6.721l5.112,4.257l-5.224,10.286l-4.117,-7.822Zm-9.473,5.361l4.4,-5.872l4.234,0.9l4.455,8.465l-3.659,9.009l-9.429,-12.503Zm6.173,20.523l-10.333,-14.971l3.583,-4.782l9.601,12.731l-2.851,7.022Zm0.624,0.904l2.872,-7.072l0.935,1.239l-3.408,6.41l-0.398,-0.578Zm-18.024,-6.443l2.051,-2.738l11.795,17.026l-1.572,3.87l-12.275,-18.159Zm1.501,-3.533l-2.044,2.728l-7.939,-11.744l2.498,-1.789l7.486,10.805Zm4.431,-5.914l-3.846,5.134l-7.319,-10.564l4.963,-3.555l6.202,8.986Zm4.143,-5.529l-3.558,4.748l-6.035,-8.743l4.272,-3.06l5.321,7.056Zm2.132,-13.29l2.46,1.918l0.301,4.842l-4.315,5.759l-5.147,-6.824l0.748,-0.536l-0.847,-1.131l6.799,-4.028Zm-18.767,-25.028l21.838,18.189l-3.151,5.563l-10.42,-9.158l1.4,-2.295l-9.045,-6.107l0.946,-1.782l-0.813,-0.427l-2.557,4.817l0.812,0.426l1.175,-2.213l8.237,5.562l-1.345,2.204l10.947,9.621l-6.61,3.916l-12.34,-16.482l-8.655,0.077l-2.194,-11.808l11.773,-0.104Zm16.774,0.598l-4.62,8.322l-11.408,-9.501l4.22,-8.207l11.808,9.387Zm10.363,8.238l-4.835,8.535l-9.43,-7.854l4.63,-8.34l9.634,7.659Zm-9.179,-8.479l2.845,-5.124l9.909,7.292l-3.114,5.497l-9.641,-7.665Zm-25.851,42.961l3.129,-1.824l21.317,31.534l-2.266,1.353l-22.18,-31.063Zm-16.898,30.902l-7.192,-16.858l23.288,-13.576l22.186,31.072l-2.235,1.334l-36.046,-1.972Zm4.518,10.589l-4.115,-9.644l34.309,1.877l-30.194,7.766Zm36.701,12.336l-6.112,-1.604l-4.343,-16.534l5.95,-1.53l1.08,1.307l3.424,18.361Zm4.498,1.18l-3.511,-0.921l-3.199,-17.152l7.279,8.812l-0.57,9.262Zm6.7,-1.841l-3.844,2.591l-1.948,-0.511l0.52,-8.461l5.271,6.381Zm27.575,-3.299l-4.676,9.611l-18.842,-7.221l4.959,-8.844l18.56,6.454Zm4.779,-9.822l-4.371,8.985l-18.507,-6.436l4.99,-8.9l17.889,6.35Zm21.419,-44.022l-21.013,43.186l-17.837,-6.332l24.37,-43.464l14.479,6.61Zm-3.127,8.525l6.182,-12.707l9.16,3.596l-5.823,13.112l-9.519,-4.001Zm12.159,12.102l-15.004,-6.256l2.44,-5.014l14.897,6.261l-2.333,5.008Zm3.581,6.243l-3.35,-0.216l4.775,-10.252l0.811,5.076l-2.236,5.392Zm-1.445,22.402l-0.005,0.015l-8.046,-1.314l-7.398,25.863l-7.168,-2.715l20.293,-43.569l4.363,0.281l1.917,-4.624l4.434,27.751l-8.391,-1.687Zm-17.139,61.759l17.783,-60.688l7.74,1.556l-16.451,63.454l-9.072,-4.322Zm-22.117,43.973c-3.058,-1.642 -7.213,-3.888 -8.483,-4.61c0.129,-0.222 0.307,-0.543 0.53,-0.955c0.433,-0.803 1.053,-1.986 1.842,-3.516c1.328,-2.575 3.157,-6.169 5.435,-10.685c3.395,-6.73 6.798,-13.544 7.619,-15.188l3.802,1.403l5.673,-11.089l4.199,2l-20.616,42.64Zm7.352,-13.096l2.43,-5.027l27.726,9.015l-2.124,6.373l-28.032,-10.361Zm30.074,17.888l-32.576,-12.715l2.097,-4.338l32.021,11.836l-1.542,5.217Zm0.859,0.335l1.546,-5.233l11.327,4.187l-1.592,5.449l-11.282,-4.403Zm-2.539,8.592l2.276,-7.702l11.285,4.404l-2.304,7.888l-11.257,-4.59Zm-21.536,0.862l5.089,-6.57l27.231,11.103l-8.223,9.383l-24.097,-13.916Zm-18.192,-4.81l1.511,-2.687l8.043,4.644l-1.692,2.675l-7.862,-4.632Zm-13.978,3.482l3.236,-1.837l-1.044,-6.442l10.088,5.944l-11.338,20.159l-7.763,-6.257l6.82,-11.567Zm-42.809,19.618l3.781,8.97l-6.193,-0.461l-3.92,-9.28l6.333,0.771Zm0.644,-0.85l-6.447,-15.296l11.096,-5.822l4.379,10.052l23.279,3.597l-6.272,10.638l-26.035,-3.169Zm-15.043,-14.265l5.816,13.767l-4.705,3.181l-5.856,-14.142l4.745,-2.806Zm-9.078,-5.242l3.174,7.666l-5.328,3.15l-3.757,-7.127l5.911,-3.689Zm-3.555,-24.664l4.824,11.421l-10.699,6.345l-1.84,-20.8l7.715,3.035Zm3.156,-4.687l-2.805,3.833l-7.879,-3.1l6.567,-9.365l4.117,8.632Zm-1.969,-27.821l4.656,9.865l-3.212,4.7l4.574,9.959l-2.821,1.58l-10.22,-21.428l7.022,-4.675Zm-2.021,-4.284l1.626,3.445l-7.025,4.677l-1.761,-3.693l7.161,-4.429Zm-2.116,-4.483l1.722,3.647l-7.164,4.431l-1.781,-3.735l7.224,-4.343Zm-0.394,-0.834l-7.227,4.346l-2.177,-4.564l7.216,-4.417l2.188,4.635Zm1.037,-15.881l11.239,24.462l-6.754,-1.212l-9.816,-20.796l5.331,-2.454Zm7.043,-14.796l-10.796,6.628l3.369,7.333l-5.339,2.458l-10.164,-21.533l5.938,-1.088l16.991,6.203Zm27.056,1.158l-8.219,4.775l-17.832,-6.55l-0,0l-16.202,-5.915l10.185,-1.866l2.204,-13.072l2.083,-0.763l8.745,-1.147l19.035,24.537Zm6.443,-16.751l-6.793,-1.783l-4.696,5.568l-10.588,-10.206l-1.382,-1.782l19.564,-5.033l3.895,13.235Zm1.043,0.274l-4.043,-13.739l4.333,-1.115l4.212,16.035l-4.502,-1.181Zm7.183,10.227l-3.611,1.908l-3.267,-11.101l11.173,2.932l-4.294,6.261Zm-9.486,4.428l-3.163,1.407l-13.702,-17.662l16.865,16.255Zm0.912,-0.406l-10.479,-10.1l4.357,-5.166l6.774,1.778l3.477,11.815l-3.23,1.707l-0.153,-0.364l-0.746,0.331Zm2.156,3.021l-0.9,-2.139l7.945,-4.198l4.609,-6.72l5.553,1.457l-17.208,11.599Zm27.194,35.138l-2.991,-7.147l13.062,-17.565l17.868,-12.126l0.445,0.171l-28.384,36.669Zm33.538,-34.694l-7.54,16.188l4.427,13.4l-12.11,17.002c-0.567,-0.008 -1.395,-0.019 -2.242,-0.022c-3.216,-0.014 -3.561,0.076 -3.79,0.135c-0.534,0.138 -0.849,0.5 -1.492,1.355c-0.379,0.504 -0.899,1.229 -1.546,2.158c-0.492,0.706 -1.063,1.537 -1.709,2.486l-7.13,-17.035l28.871,-37.299l4.259,1.632Zm-29.738,81.371l13.498,7.794l-1.507,2.68l-11.38,-6.705l-0.611,-3.77Zm-12.573,1.982l-8.429,4.236l-3.851,-7.99l20.085,-10.352l3.866,23.858l-5.899,2.703l-5.772,-12.456Zm-41.02,6.933l20.122,-9.345l0.486,1.102l5.994,-2.622l5.135,10.652l8.403,-4.223l2.723,5.875l-23.046,10.736l-4.484,-10.294l-11.907,6.248l-3.426,-8.129Zm-5.172,9.156l-4.739,2.802l-3.183,-7.687l4.637,-2.894l3.286,7.779Zm5.19,-14.709l1.716,3.735l-7.971,3.702l-1.438,-3.404l7.693,-4.033Zm-2.045,-4.452l1.661,3.616l-7.667,4.02l-1.577,-3.733l7.583,-3.904Zm-2.101,-4.573l1.717,3.738l-7.558,3.89l-1.528,-3.617l7.369,-4.011Zm-3.015,-6.564l2.631,5.728l-7.344,3.998l-2.356,-5.578l7.069,-4.148Zm-0.385,-0.838l-7.044,4.133l-0.869,-2.057l3.289,-4.495l-0.512,-1.074l2.809,-1.573l2.327,5.066Zm-3.309,-20.029l17.924,37.704l-4.516,2.098l-16.329,-35.551l2.907,-4.254l0.015,0.004Zm2.793,-10.395l4.796,10.437l-6.871,-1.764l-4.665,-9.882l6.74,1.209Zm4.64,-12.712l3.848,8.39l-7.441,3.573l-0.408,-0.073l-11.508,-25.047l1.543,-0.711l13.967,13.868Zm3.728,-8.577l-7.3,3.727l-2.383,-2.366l6.604,-3.203l0.351,-13.364l2.978,1.094l-0.251,14.112Zm5.497,-12.185l5.568,13l-14.313,6.935l-3.367,-3.343l7.525,-3.842l0.255,-14.341l4.331,1.591Zm17.72,39.024l4.669,-2.509l13.595,30.908l-4.997,2.576l-13.267,-30.974Zm-10.024,22.551l6.232,14.117l-11.824,5.491l-6.325,-13.305l11.917,-6.304Zm-10.632,-4.959l3.437,7.727l-5.116,2.707l-3.62,-7.613l5.299,-2.82Zm-5.615,-10.665l10.546,2.708l1.534,3.476l-12.159,6.471l-4.796,-10.089l4.874,-2.566Zm-1.324,-0.34l-3.944,2.077l-1.673,-3.519l5.618,1.442Zm12.539,-10.01l-0.425,11.214l-10.156,-2.608l-1.214,-2.642l11.795,-5.965Zm0.359,-9.464l-0.319,8.416l-3.724,1.883l-3.141,-6.849l7.184,-3.45Zm-7.567,2.615l-3.689,-8.044l14.163,-6.863l3.509,8.192l-13.984,6.715Zm12.705,5.434l3.733,8.287l-8.681,4.592l-0.06,-0.016l0.452,-11.923l0.113,-0.057l-0.103,-0.206l0.347,-9.176l5.84,-2.804l3.7,8.638l-5.34,2.666Zm1.673,10.414l3.256,-1.722l-3.724,-8.267l4.498,-2.246l11.13,25.985l-7.108,3.697l-8.052,-17.447Zm-6.169,3.263l5.35,-2.83l8.049,17.441l-5.652,2.939l-7.747,-17.55Zm-1.174,15.426l-1.171,0.62l-3.439,-7.729l1.093,-0.582l3.517,7.691Zm-2.7,-8.126l4.11,-2.187l3.424,7.756l-4.015,2.124l-3.518,-7.693Zm-4.786,-25.177l3.149,6.867l-7.668,3.878l-3.243,-7.058l0.061,0.011l7.701,-3.697Zm20.732,45.226l-3.955,-8.958l13.573,-7.058l4.808,11.225l-7.646,3.94l-0.842,-1.747l-5.938,2.597Zm12.136,-70.197l3.672,-2.026l5.415,12.938l-7.549,9.236l-12.272,-29.156l3.87,-2.609l6.864,11.616Zm5.747,-12.944l-2.853,3.134l3.346,5.147l-2.57,1.589l-3.327,1.836l-6.439,-10.897l8.151,-5.494l3.692,4.685Zm-1.269,10.45l3.049,-1.886l-3.472,-5.341l2.899,-3.185l-4.129,-5.24l0.699,-0.471l14.277,17.6l0.103,0.128l7.14,1.421l-12.35,16.608l-8.216,-19.631Zm11.376,29.575l7.16,17.109c-0.609,0.901 -1.276,1.893 -1.997,2.972c-1.91,2.857 -3.804,5.729 -4.959,7.485l-7.588,-18.027l7.384,-9.539Zm-7.792,8.568l-6.121,-14.544l7.548,-9.234l5.959,14.237l-7.385,9.54Zm-21.546,-46.426l28.321,67.286l-0.196,0.3l0.334,2.061l-6.041,3.113l-13.973,-31.765l-5.478,2.944l-16.426,-38.35l8.161,-4.742l0.871,1.123l4.426,-1.969Zm-39.507,12.531l-3.029,-6.594l10.716,-6.579l8.295,3.047l-0.345,13.118l-6.388,3.098l-7.121,-7.07l-2.128,0.98Zm22.258,88.516l6.211,14.737l-6.333,-0.771l-4.807,-11.38l4.929,-2.586Zm-5.287,1.738l-3.555,-8.416l5.041,-2.341l3.444,8.171l-4.93,2.586Zm50.76,-4.343l-5.393,9.146l-21.892,-3.383l22.098,-10.295l2.625,5.664l2.562,-1.132Zm37.687,-17.22l21.396,8.351l-2.272,7.69l-15.887,-6.477l-5.596,7.225l-6.052,-3.495l8.411,-13.293Zm-9.206,12.834l-8.174,-4.72l6.059,-12.532l10.45,4.079l-8.335,13.174Zm-0.256,-45.897c-5.895,11.82 -14.85,29.609 -15.725,30.9c-0.064,0.05 -0.117,0.118 -0.148,0.2c-0.061,0.158 -0.049,0.4 0.188,0.564c0.025,0.017 0.056,0.037 0.098,0.063c0.07,0.043 0.17,0.101 0.305,0.178c0.242,0.138 0.599,0.337 1.06,0.591c0.775,0.427 1.857,1.017 3.216,1.752c1.758,0.952 3.536,1.907 4.298,2.317l-2.007,4.151l-14.735,-8.509l-1.974,-12.186c4.997,-7.632 10.463,-15.771 11.812,-17.467c0.995,-0.047 3.543,-0.038 5.718,0.003l0.734,0.014l12.31,-17.282l2.103,4.441l2.032,0.968l-5.287,10.336l-3.81,-1.406l-0.186,0.373Zm18.364,-45.109l7.193,-25.148l7.127,1.164l-7.756,26.47l-6.564,-2.487Zm6.303,3.376l-9.697,33.092l-6.33,-3.016l-2.263,-4.78l0.243,-0.342l-4.523,-13.69l7.844,-16.842l14.725,5.578Zm-24.641,-7.62l-17.241,11.701l-7.336,-1.46l-14.12,-17.407l7.266,-4.898l0.023,0.027l31.408,12.037Zm12.561,-10.161l-4.745,10.188l-16.075,-6.16l4.689,-9.637l16.131,5.609Zm-3.529,-12.648l4.266,-7.759l7.117,3.545l-7.462,16.02l-16.116,-5.604l4.369,-8.98l7.826,2.778Zm9.182,-12.436l3.843,-7.76l4.8,2.151l-6.051,12.992l-7.884,-3.927l-4.315,7.849l-6.994,-2.483l6.522,-13.405l10.08,4.582Zm-5.913,-13.146l3.077,-6.323l15.019,6.261l-3.15,6.762l-14.945,-6.7Zm8.917,5.011l-3.43,6.926l-9.249,-4.204l3.358,-6.901l9.322,4.179Zm-119.73,140.853l-1.066,-1.922l-0.339,-3.836l10.97,-6.505l3.441,8.145l-11.409,7.121l-1.586,-3.009l-0.009,0.007Zm101.309,7.256l-2.492,3.217l4.288,6.181l-3.664,2.674l-8.28,-8.416l4.674,-6.882l5.474,3.225Zm-4.459,-4.774l1.696,-2.681l5.899,3.407l-1.994,2.575l-5.601,-3.3Zm27.602,-178.476l-3.781,7.771l-14.43,-6.587l4.358,-7.773l13.853,6.588Zm-10.858,-11.93l2.46,-4.388l13.7,5.419l-2.602,5.348l-13.559,-6.378Zm13.155,7.209l-1.893,3.889l-13.804,-6.565l2.089,-3.725l13.608,6.401Zm-63.711,34.745l0.326,0.472l-2.195,4.129l1.869,-4.602Zm-3.345,5.796l-11.627,-16.782l3.846,-5.132l10.502,15.215l-2.721,6.7Zm-79.354,-57.06l2.154,-6.599l10.359,4.853l2.826,10.777l-15.339,-9.031Zm-0.057,-32.015l-0.926,0.008l2.016,20.82l-5.692,0.873l-0.913,-9.578l-0.228,0.024l0,7.303l0.316,3.309l6.607,-1.013l0.289,2.984l-2.223,6.808l-4.989,-2.937l0,1.073l4.695,2.764l-1.118,3.424l-3.577,-2.111l0,1.074l3.283,1.937l-1.078,3.301l-2.205,-1.283l0,1.069l1.912,1.112l-1.912,5.856l0,3.151l5.984,6.813l-3.776,3.193l-2.208,-2.59l0,1.426l1.502,1.761l-1.502,1.27l0,1.201l2.097,-1.773l25.322,29.704l-4.887,4.812l-18.013,-20.495l3.552,-2.79l-8.071,-8.415l-0,1.337l6.702,6.987l-2.789,2.191l-3.913,-4.452l0,1.401l3.184,3.623l-1.987,1.561l-1.197,-1.289l0,1.36l1.093,1.177l2.697,-2.119l6.551,7.453l-10.341,0.092l0,0.921l2.766,-0.025l9.719,21.404l-9.336,3.1l-3.149,-6.671l0,4.657l0.119,-0.074l7.064,14.967l-7.183,3.915l0,5.241l11.734,24.602l-4.429,3.41l-6.044,-8.405l3.423,-3.135l-4.684,-7.139l0,1.686l3.483,5.308l-3.448,3.158l6.537,9.091l-6.572,5.06l0,1.47l17.437,17.155l-2.84,3.481l-14.596,-14.176l-0,1.29l14.009,13.606l-2.924,3.584l-11.085,-9.975l0,1.245l10.912,9.819l0,10.759l-7.703,-7.527l0.63,22.475l-3.839,-1.771l0,1.018l5.033,2.322l5.583,9.404l-10.616,8.953l0,1.2l11.09,-9.354l4.385,7.385l-15.475,11.767l0,1.153l7.379,-5.611l5.338,8.234l-12.717,9.601l0,1.15l13.217,-9.978l5.387,8.31l-18.604,13.859l0,1.087l0.078,-0.001l7.286,-5.428l3.24,5.334l1.076,-0.01l-3.571,-5.88l4.99,-3.717l5.655,9.535l1.069,-0.009l-5.979,-10.081l3.638,-2.71l7.602,12.744l1.072,-0.009l-7.931,-13.287l5.209,-3.88l10.243,17.101l1.072,-0.009l-10.57,-17.647l3.266,-2.433l13.074,20.029l1.098,-0.01l-13.654,-20.919l-1.683,-3.114l12.453,4.228l5.4,12.361l8.358,-9.578l0.299,0.022l7.112,16.837l1.998,-0.018l-7.039,-16.665l6.192,0.461l6.807,16.151l0.999,-0.009l-6.771,-16.065l16.219,1.207l-4.575,7.759l1.396,7.044l2.817,-0.025l-1.297,-6.545l4.241,-7.193l14.588,13.583l1.345,-0.012l-15.452,-14.387l4.221,-7.158l24.026,21.432l2.072,-0.018l12.343,-12.91l4.672,4.102l6.477,-6.267l14.425,14.738l1.284,-0.011l-5.527,-5.647l13.222,-9.046l4.318,6.021l-3.294,8.594l0.987,-0.009l2.948,-7.692l5.462,7.617l2.262,-0.02l-6.932,-9.666l1.439,-3.755l9.878,13.383l2.284,-0.02l-11.38,-15.418l7.319,-19.46l10.354,4.741l0,-1.017l-10.063,-4.607l2.327,-8.55l0.174,-0.436l-0.05,-0.019l1.741,-6.395l0.059,-0.157l-0.015,-0.006l5.827,-21.408l0,-3.499l-4.411,16.204l-7.556,-2.457l8.266,-28.303l3.701,0.562l0,-1.866l-21.192,-3.22l1.661,-13.964l19.53,0.948l0,-0.923l-19.421,-0.943l1.444,-12.138l17.977,-0.159l0,-0.921l-17.868,0.158l1.449,-12.178l16.419,-0.454l0,-0.922l-16.309,0.451l0.569,-4.781l13.475,-0.119l0,-6.97l2.265,-0.02l0,-0.921l-3.186,0.028l0,6.97l-5.327,0.047l-5.282,-32.26l7.329,-0.754l1.257,5.476l5.21,-0.86l0,-0.932l-4.504,0.743l-1.038,-4.522l5.541,-0.57l0,-0.925l-13.944,1.435l-3.161,-19.304l9.762,-1.041l-1.066,-12.995l8.409,-1.025l0,-0.928l-9.4,1.146l1.065,12.981l-8.918,0.951l-1.186,-7.245l11.67,-23.08l6.77,2.752l0,-0.998l-7.204,-2.928l-11.487,22.718l-0.568,-3.469l12.566,-26.978l4.401,-0.039l0.228,-1.103l2.065,-9.993l0,-13.629l-4.543,21.981l-3.909,0.035l-4.745,10.189l-5.063,-1.976l18.261,-32.808l0,-1.887l-3.583,6.437l-22.817,-9.472l4.735,-8.446l21.664,9.085l0,-1.002l-8.255,-3.462l3.06,-5.545l-1.053,0.009l-2.858,5.179l-12.035,-5.047l-1.142,0.01l-15.442,27.541l-11.543,-5.329l-7.885,14.864l-3.865,-1.818l7.47,-15.093l29.632,-20.15l-1.653,0.015l-28.594,19.444l-0.102,0.069l-7.994,16.153l4.672,2.198l-19.107,36.019l-8.27,-6.47l35.72,-67.203l-1.044,0.009l-7.326,13.783l-8.611,-5.188l2.151,-4.011l5.391,3.021l3.963,-7.566l-1.041,0.009l-3.294,6.289l-4.582,-2.568l1.968,-3.669l-1.046,0.009l-4.297,8.011l-8.122,-4.894l1.712,-3.022l-1.06,0.009l-5.329,9.408l-11.178,-7.236l-4.107,7.397l-12.803,-8.602l0.347,-0.675l-1.037,0.009l-3.902,7.588l-23.195,-5.936l-0.262,-1.409l-2.81,0.025l1.132,6.093l-10.241,10.914l-3.761,-4.069l11.426,-12.925l-1.234,0.011l-10.817,12.237l-11.13,-12.043l-1.25,0.011l13.521,14.63l-6.014,6.375l-11.985,-10.067l-2.851,-10.873l-1.904,0.017l0.528,2.015l0,18.083l1.403,4.159l-2.552,1.018l-1.632,-0.765l-2.37,-24.469Z" style="fill:#FFFFFF;fill-rule:nonzero;"/></g></svg>